<svg width="60" height="60" viewBox="0 0 60 60" fill="none" xmlns="http://www.w3.org/2000/svg">
<circle cx="29.7756" cy="29.946" r="29.6923" fill="#1E3A8A"/>
<path d="M29.8116 41.17C28.3396 41.17 27.017 40.914 25.8436 40.402C24.6916 39.8687 23.785 39.1434 23.1236 38.226C22.4623 37.2874 22.121 36.21 22.0996 34.994H25.2036C25.3103 36.0394 25.737 36.9247 26.4836 37.65C27.2516 38.354 28.361 38.706 29.8116 38.706C31.1983 38.706 32.2863 38.3647 33.0756 37.682C33.8863 36.978 34.2916 36.082 34.2916 34.994C34.2916 34.1407 34.057 33.4474 33.5876 32.914C33.1183 32.3807 32.5316 31.9754 31.8276 31.698C31.1236 31.4207 30.1743 31.122 28.9796 30.802C27.5076 30.418 26.3236 30.034 25.4276 29.65C24.553 29.266 23.7956 28.6687 23.1556 27.858C22.537 27.026 22.2276 25.9167 22.2276 24.53C22.2276 23.314 22.537 22.2367 23.1556 21.298C23.7743 20.3594 24.6383 19.634 25.7476 19.122C26.8783 18.61 28.169 18.354 29.6196 18.354C31.7103 18.354 33.417 18.8767 34.7396 19.922C36.0836 20.9674 36.841 22.354 37.0116 24.082H33.8116C33.705 23.2287 33.257 22.482 32.4676 21.842C31.6783 21.1807 30.633 20.85 29.3316 20.85C28.1156 20.85 27.1236 21.17 26.3556 21.81C25.5876 22.4287 25.2036 23.3034 25.2036 24.434C25.2036 25.2447 25.4276 25.906 25.8756 26.418C26.345 26.93 26.9103 27.3247 27.5716 27.602C28.2543 27.858 29.2036 28.1567 30.4196 28.498C31.8916 28.9034 33.0756 29.3087 33.9716 29.714C34.8676 30.098 35.6356 30.706 36.2756 31.538C36.9156 32.3487 37.2356 33.458 37.2356 34.866C37.2356 35.954 36.9476 36.978 36.3716 37.938C35.7956 38.898 34.9423 39.6767 33.8116 40.274C32.681 40.8714 31.3476 41.17 29.8116 41.17Z" fill="#EFF6FF"/>
</svg>
